<mxfile host="app.diagrams.net" agent="Mozilla/5.0 (Windows NT 10.0; Win64; x64) AppleWebKit/537.36 (KHTML, like Gecko) Chrome/135.0.0.0 Safari/537.36" version="26.2.14">
  <diagram name="Página-1" id="99QpyNqReHYSbeTs15qG">
    <mxGraphModel dx="1426" dy="783" grid="1" gridSize="10" guides="1" tooltips="1" connect="1" arrows="1" fold="1" page="1" pageScale="1" pageWidth="827" pageHeight="1169" math="0" shadow="0">
      <root>
        <mxCell id="0" />
        <mxCell id="1" parent="0" />
        <mxCell id="10" value="Inicio de Sesión" style="whiteSpace=wrap;strokeWidth=2;" parent="1" vertex="1">
          <mxGeometry x="11" y="1401" width="171" height="54" as="geometry" />
        </mxCell>
        <mxCell id="xRqvSuQQSVsxyxMX5qa8-61" value="" style="edgeStyle=orthogonalEdgeStyle;rounded=0;orthogonalLoop=1;jettySize=auto;html=1;" edge="1" parent="1" source="xRqvSuQQSVsxyxMX5qa8-58" target="xRqvSuQQSVsxyxMX5qa8-60">
          <mxGeometry relative="1" as="geometry" />
        </mxCell>
        <mxCell id="xRqvSuQQSVsxyxMX5qa8-58" value="Home" style="rounded=1;whiteSpace=wrap;html=1;" vertex="1" parent="1">
          <mxGeometry x="280" y="150" width="100" height="40" as="geometry" />
        </mxCell>
        <mxCell id="xRqvSuQQSVsxyxMX5qa8-63" value="" style="edgeStyle=orthogonalEdgeStyle;rounded=0;orthogonalLoop=1;jettySize=auto;html=1;" edge="1" parent="1" source="xRqvSuQQSVsxyxMX5qa8-60" target="xRqvSuQQSVsxyxMX5qa8-62">
          <mxGeometry relative="1" as="geometry" />
        </mxCell>
        <mxCell id="xRqvSuQQSVsxyxMX5qa8-66" style="edgeStyle=orthogonalEdgeStyle;rounded=0;orthogonalLoop=1;jettySize=auto;html=1;entryX=0;entryY=0.5;entryDx=0;entryDy=0;" edge="1" parent="1" source="xRqvSuQQSVsxyxMX5qa8-60" target="xRqvSuQQSVsxyxMX5qa8-65">
          <mxGeometry relative="1" as="geometry" />
        </mxCell>
        <mxCell id="xRqvSuQQSVsxyxMX5qa8-67" style="edgeStyle=orthogonalEdgeStyle;rounded=0;orthogonalLoop=1;jettySize=auto;html=1;" edge="1" parent="1" source="xRqvSuQQSVsxyxMX5qa8-60" target="xRqvSuQQSVsxyxMX5qa8-64">
          <mxGeometry relative="1" as="geometry" />
        </mxCell>
        <mxCell id="xRqvSuQQSVsxyxMX5qa8-60" value="Pantalla PLAN" style="whiteSpace=wrap;html=1;rounded=1;" vertex="1" parent="1">
          <mxGeometry x="270" y="260" width="120" height="60" as="geometry" />
        </mxCell>
        <mxCell id="xRqvSuQQSVsxyxMX5qa8-69" value="" style="edgeStyle=orthogonalEdgeStyle;rounded=0;orthogonalLoop=1;jettySize=auto;html=1;" edge="1" parent="1" source="xRqvSuQQSVsxyxMX5qa8-62" target="xRqvSuQQSVsxyxMX5qa8-68">
          <mxGeometry relative="1" as="geometry" />
        </mxCell>
        <mxCell id="xRqvSuQQSVsxyxMX5qa8-62" value="Pantalla RECETA" style="whiteSpace=wrap;html=1;rounded=1;" vertex="1" parent="1">
          <mxGeometry x="270" y="400" width="120" height="60" as="geometry" />
        </mxCell>
        <mxCell id="xRqvSuQQSVsxyxMX5qa8-64" value="REGENERAR" style="ellipse;whiteSpace=wrap;html=1;" vertex="1" parent="1">
          <mxGeometry x="430" y="220" width="110" height="60" as="geometry" />
        </mxCell>
        <mxCell id="xRqvSuQQSVsxyxMX5qa8-65" value="IMPRIMIR" style="ellipse;whiteSpace=wrap;html=1;" vertex="1" parent="1">
          <mxGeometry x="430" y="290" width="110" height="60" as="geometry" />
        </mxCell>
        <mxCell id="xRqvSuQQSVsxyxMX5qa8-68" value="VOLVER" style="ellipse;whiteSpace=wrap;html=1;rounded=1;" vertex="1" parent="1">
          <mxGeometry x="430" y="400" width="110" height="60" as="geometry" />
        </mxCell>
      </root>
    </mxGraphModel>
  </diagram>
</mxfile>
